<mxfile host="app.diagrams.net" agent="Mozilla/5.0 (Windows NT 10.0; Win64; x64) AppleWebKit/537.36 (KHTML, like Gecko) Chrome/133.0.0.0 Safari/537.36 OPR/118.0.0.0" version="27.1.1">
  <diagram name="Page-1" id="alIAzStIHCcYf8PI18Kd">
    <mxGraphModel dx="1462" dy="958" grid="1" gridSize="10" guides="1" tooltips="1" connect="1" arrows="1" fold="1" page="1" pageScale="1" pageWidth="850" pageHeight="1100" math="0" shadow="0">
      <root>
        <mxCell id="0" />
        <mxCell id="1" parent="0" />
        <mxCell id="LcEoei4q89ycvATHcjAb-1" value="1&lt;div&gt;[2,8,7]&lt;/div&gt;" style="shape=hexagon;perimeter=hexagonPerimeter2;whiteSpace=wrap;html=1;fixedSize=1;fillColor=#e3c800;fontColor=#000000;strokeColor=#B09500;" vertex="1" parent="1">
          <mxGeometry y="80" width="120" height="80" as="geometry" />
        </mxCell>
        <mxCell id="LcEoei4q89ycvATHcjAb-2" value="2&lt;div&gt;[1,8,9,3]&lt;/div&gt;" style="shape=hexagon;perimeter=hexagonPerimeter2;whiteSpace=wrap;html=1;fixedSize=1;" vertex="1" parent="1">
          <mxGeometry y="200" width="120" height="80" as="geometry" />
        </mxCell>
        <mxCell id="LcEoei4q89ycvATHcjAb-3" value="3&lt;div&gt;[2,9,10,4]&lt;/div&gt;" style="shape=hexagon;perimeter=hexagonPerimeter2;whiteSpace=wrap;html=1;fixedSize=1;" vertex="1" parent="1">
          <mxGeometry y="320" width="120" height="80" as="geometry" />
        </mxCell>
        <mxCell id="LcEoei4q89ycvATHcjAb-4" value="4&lt;div&gt;[3,10,11,5]&lt;/div&gt;" style="shape=hexagon;perimeter=hexagonPerimeter2;whiteSpace=wrap;html=1;fixedSize=1;" vertex="1" parent="1">
          <mxGeometry y="440" width="120" height="80" as="geometry" />
        </mxCell>
        <mxCell id="LcEoei4q89ycvATHcjAb-5" value="5&lt;div&gt;[4,11,12,6]&lt;/div&gt;" style="shape=hexagon;perimeter=hexagonPerimeter2;whiteSpace=wrap;html=1;fixedSize=1;" vertex="1" parent="1">
          <mxGeometry y="560" width="120" height="80" as="geometry" />
        </mxCell>
        <mxCell id="LcEoei4q89ycvATHcjAb-6" value="6&lt;div&gt;(10kg,1m)&lt;/div&gt;&lt;div&gt;[5,12]&lt;/div&gt;" style="shape=hexagon;perimeter=hexagonPerimeter2;whiteSpace=wrap;html=1;fixedSize=1;fillColor=#008a00;fontColor=#ffffff;strokeColor=#005700;" vertex="1" parent="1">
          <mxGeometry y="680" width="120" height="80" as="geometry" />
        </mxCell>
        <mxCell id="LcEoei4q89ycvATHcjAb-7" value="7&lt;div&gt;[13,8,1]&lt;/div&gt;" style="shape=hexagon;perimeter=hexagonPerimeter2;whiteSpace=wrap;html=1;fixedSize=1;" vertex="1" parent="1">
          <mxGeometry x="160" width="120" height="80" as="geometry" />
        </mxCell>
        <mxCell id="LcEoei4q89ycvATHcjAb-8" value="8&lt;div&gt;[7,13,14,9,2,1]&lt;/div&gt;" style="shape=hexagon;perimeter=hexagonPerimeter2;whiteSpace=wrap;html=1;fixedSize=1;" vertex="1" parent="1">
          <mxGeometry x="160" y="120" width="120" height="80" as="geometry" />
        </mxCell>
        <mxCell id="LcEoei4q89ycvATHcjAb-9" value="9&lt;div&gt;[8,14,15,10,3,2]&lt;/div&gt;" style="shape=hexagon;perimeter=hexagonPerimeter2;whiteSpace=wrap;html=1;fixedSize=1;" vertex="1" parent="1">
          <mxGeometry x="160" y="240" width="120" height="80" as="geometry" />
        </mxCell>
        <mxCell id="LcEoei4q89ycvATHcjAb-10" value="10&lt;div&gt;(30kg, 3m)&lt;/div&gt;&lt;div&gt;[9,15,16,11,4,3]&lt;/div&gt;" style="shape=hexagon;perimeter=hexagonPerimeter2;whiteSpace=wrap;html=1;fixedSize=1;fillColor=#6a00ff;fontColor=#ffffff;strokeColor=#3700CC;" vertex="1" parent="1">
          <mxGeometry x="160" y="360" width="120" height="80" as="geometry" />
        </mxCell>
        <mxCell id="LcEoei4q89ycvATHcjAb-11" value="11&lt;div&gt;[10,16,17,12,5,4]&lt;/div&gt;" style="shape=hexagon;perimeter=hexagonPerimeter2;whiteSpace=wrap;html=1;fixedSize=1;" vertex="1" parent="1">
          <mxGeometry x="160" y="480" width="120" height="80" as="geometry" />
        </mxCell>
        <mxCell id="LcEoei4q89ycvATHcjAb-12" value="12&lt;div&gt;[11,17,18,6,5]&lt;/div&gt;" style="shape=hexagon;perimeter=hexagonPerimeter2;whiteSpace=wrap;html=1;fixedSize=1;" vertex="1" parent="1">
          <mxGeometry x="160" y="600" width="120" height="80" as="geometry" />
        </mxCell>
        <mxCell id="LcEoei4q89ycvATHcjAb-13" value="13&lt;div&gt;[19,20,14,8,7]&lt;/div&gt;" style="shape=hexagon;perimeter=hexagonPerimeter2;whiteSpace=wrap;html=1;fixedSize=1;" vertex="1" parent="1">
          <mxGeometry x="320" y="80" width="120" height="80" as="geometry" />
        </mxCell>
        <mxCell id="LcEoei4q89ycvATHcjAb-14" value="14&lt;div&gt;[13,20,21,15,9,8]&lt;/div&gt;" style="shape=hexagon;perimeter=hexagonPerimeter2;whiteSpace=wrap;html=1;fixedSize=1;" vertex="1" parent="1">
          <mxGeometry x="320" y="200" width="120" height="80" as="geometry" />
        </mxCell>
        <mxCell id="LcEoei4q89ycvATHcjAb-15" value="15&lt;div&gt;(5kg, 1m)&lt;/div&gt;&lt;div&gt;[14,21,22,16,10,9]&lt;/div&gt;" style="shape=hexagon;perimeter=hexagonPerimeter2;whiteSpace=wrap;html=1;fixedSize=1;fillColor=#fa6800;fontColor=#000000;strokeColor=#C73500;" vertex="1" parent="1">
          <mxGeometry x="320" y="320" width="120" height="80" as="geometry" />
        </mxCell>
        <mxCell id="LcEoei4q89ycvATHcjAb-16" value="16&lt;div&gt;[15,22,23,17,11,10]&lt;/div&gt;" style="shape=hexagon;perimeter=hexagonPerimeter2;whiteSpace=wrap;html=1;fixedSize=1;" vertex="1" parent="1">
          <mxGeometry x="320" y="440" width="120" height="80" as="geometry" />
        </mxCell>
        <mxCell id="LcEoei4q89ycvATHcjAb-17" value="17&lt;div&gt;[16,23,24,18,12,11]&lt;/div&gt;" style="shape=hexagon;perimeter=hexagonPerimeter2;whiteSpace=wrap;html=1;fixedSize=1;" vertex="1" parent="1">
          <mxGeometry x="320" y="560" width="120" height="80" as="geometry" />
        </mxCell>
        <mxCell id="LcEoei4q89ycvATHcjAb-18" value="18&lt;div&gt;[17,24,12]&lt;/div&gt;" style="shape=hexagon;perimeter=hexagonPerimeter2;whiteSpace=wrap;html=1;fixedSize=1;fillColor=#e51400;fontColor=#ffffff;strokeColor=#B20000;" vertex="1" parent="1">
          <mxGeometry x="320" y="680" width="120" height="80" as="geometry" />
        </mxCell>
        <mxCell id="LcEoei4q89ycvATHcjAb-56" value="19&lt;div&gt;[25,20,13]&lt;/div&gt;" style="shape=hexagon;perimeter=hexagonPerimeter2;whiteSpace=wrap;html=1;fixedSize=1;" vertex="1" parent="1">
          <mxGeometry x="480" width="120" height="80" as="geometry" />
        </mxCell>
        <mxCell id="LcEoei4q89ycvATHcjAb-57" value="20&lt;div&gt;(5kg, 1m)&lt;/div&gt;&lt;div&gt;[19,25,26,21,14,13]&lt;/div&gt;" style="shape=hexagon;perimeter=hexagonPerimeter2;whiteSpace=wrap;html=1;fixedSize=1;fillColor=#fa6800;fontColor=#000000;strokeColor=#C73500;" vertex="1" parent="1">
          <mxGeometry x="480" y="120" width="120" height="80" as="geometry" />
        </mxCell>
        <mxCell id="LcEoei4q89ycvATHcjAb-58" value="21&lt;div&gt;[20,26,27,22,15,14]&lt;/div&gt;" style="shape=hexagon;perimeter=hexagonPerimeter2;whiteSpace=wrap;html=1;fixedSize=1;" vertex="1" parent="1">
          <mxGeometry x="480" y="240" width="120" height="80" as="geometry" />
        </mxCell>
        <mxCell id="LcEoei4q89ycvATHcjAb-59" value="23&lt;div&gt;(5kg, 3m)&lt;/div&gt;&lt;div&gt;[22,28,29,24,17,16]&lt;/div&gt;" style="shape=hexagon;perimeter=hexagonPerimeter2;whiteSpace=wrap;html=1;fixedSize=1;fillColor=#fa6800;fontColor=#000000;strokeColor=#C73500;" vertex="1" parent="1">
          <mxGeometry x="480" y="480" width="120" height="80" as="geometry" />
        </mxCell>
        <mxCell id="LcEoei4q89ycvATHcjAb-60" value="24&lt;div&gt;[23,29,30,18,17]&lt;/div&gt;" style="shape=hexagon;perimeter=hexagonPerimeter2;whiteSpace=wrap;html=1;fixedSize=1;" vertex="1" parent="1">
          <mxGeometry x="480" y="600" width="120" height="80" as="geometry" />
        </mxCell>
        <mxCell id="LcEoei4q89ycvATHcjAb-61" value="25&lt;div&gt;[31,32,26,20,19]&lt;/div&gt;" style="shape=hexagon;perimeter=hexagonPerimeter2;whiteSpace=wrap;html=1;fixedSize=1;" vertex="1" parent="1">
          <mxGeometry x="640" y="80" width="120" height="80" as="geometry" />
        </mxCell>
        <mxCell id="LcEoei4q89ycvATHcjAb-62" value="26&lt;div&gt;[25,32,33,27,21,20]&lt;/div&gt;" style="shape=hexagon;perimeter=hexagonPerimeter2;whiteSpace=wrap;html=1;fixedSize=1;" vertex="1" parent="1">
          <mxGeometry x="640" y="200" width="120" height="80" as="geometry" />
        </mxCell>
        <mxCell id="LcEoei4q89ycvATHcjAb-63" value="27&lt;div&gt;(10kg, 2m)&lt;/div&gt;&lt;div&gt;[26,33,34,28,22,21]&lt;/div&gt;" style="shape=hexagon;perimeter=hexagonPerimeter2;whiteSpace=wrap;html=1;fixedSize=1;fillColor=#008a00;fontColor=#ffffff;strokeColor=#005700;" vertex="1" parent="1">
          <mxGeometry x="640" y="320" width="120" height="80" as="geometry" />
        </mxCell>
        <mxCell id="LcEoei4q89ycvATHcjAb-64" value="28&lt;div&gt;[27,34,35,29,23,22]&lt;/div&gt;" style="shape=hexagon;perimeter=hexagonPerimeter2;whiteSpace=wrap;html=1;fixedSize=1;" vertex="1" parent="1">
          <mxGeometry x="640" y="440" width="120" height="80" as="geometry" />
        </mxCell>
        <mxCell id="LcEoei4q89ycvATHcjAb-65" value="29&lt;div&gt;(20kg, 1m)&lt;/div&gt;&lt;div&gt;[28,35,36,30,24,23]&lt;/div&gt;" style="shape=hexagon;perimeter=hexagonPerimeter2;whiteSpace=wrap;html=1;fixedSize=1;fillColor=#1ba1e2;fontColor=#ffffff;strokeColor=#006EAF;" vertex="1" parent="1">
          <mxGeometry x="640" y="560" width="120" height="80" as="geometry" />
        </mxCell>
        <mxCell id="LcEoei4q89ycvATHcjAb-66" value="30&lt;div&gt;[29,36,24]&lt;/div&gt;" style="shape=hexagon;perimeter=hexagonPerimeter2;whiteSpace=wrap;html=1;fixedSize=1;" vertex="1" parent="1">
          <mxGeometry x="640" y="680" width="120" height="80" as="geometry" />
        </mxCell>
        <mxCell id="LcEoei4q89ycvATHcjAb-99" value="31&lt;div&gt;[37,32,25]&lt;/div&gt;" style="shape=hexagon;perimeter=hexagonPerimeter2;whiteSpace=wrap;html=1;fixedSize=1;fillColor=#e51400;fontColor=#ffffff;strokeColor=#B20000;" vertex="1" parent="1">
          <mxGeometry x="800" width="120" height="80" as="geometry" />
        </mxCell>
        <mxCell id="LcEoei4q89ycvATHcjAb-100" value="32&lt;div&gt;[31,37,38,33,26,25]&lt;/div&gt;" style="shape=hexagon;perimeter=hexagonPerimeter2;whiteSpace=wrap;html=1;fixedSize=1;" vertex="1" parent="1">
          <mxGeometry x="800" y="120" width="120" height="80" as="geometry" />
        </mxCell>
        <mxCell id="LcEoei4q89ycvATHcjAb-101" value="33&lt;div&gt;[32,38,39,34,27,26]&lt;/div&gt;" style="shape=hexagon;perimeter=hexagonPerimeter2;whiteSpace=wrap;html=1;fixedSize=1;" vertex="1" parent="1">
          <mxGeometry x="800" y="240" width="120" height="80" as="geometry" />
        </mxCell>
        <mxCell id="LcEoei4q89ycvATHcjAb-102" value="35&lt;div&gt;[34,40,41,36,29,28]&lt;/div&gt;" style="shape=hexagon;perimeter=hexagonPerimeter2;whiteSpace=wrap;html=1;fixedSize=1;" vertex="1" parent="1">
          <mxGeometry x="800" y="480" width="120" height="80" as="geometry" />
        </mxCell>
        <mxCell id="LcEoei4q89ycvATHcjAb-103" value="36&lt;div&gt;[35,41,42,30,29]&lt;/div&gt;" style="shape=hexagon;perimeter=hexagonPerimeter2;whiteSpace=wrap;html=1;fixedSize=1;" vertex="1" parent="1">
          <mxGeometry x="800" y="600" width="120" height="80" as="geometry" />
        </mxCell>
        <mxCell id="LcEoei4q89ycvATHcjAb-104" value="37&lt;div&gt;[43,44,38,32,31]&lt;/div&gt;" style="shape=hexagon;perimeter=hexagonPerimeter2;whiteSpace=wrap;html=1;fixedSize=1;" vertex="1" parent="1">
          <mxGeometry x="960" y="80" width="120" height="80" as="geometry" />
        </mxCell>
        <mxCell id="LcEoei4q89ycvATHcjAb-105" value="38&lt;div&gt;(10kg, 2m)&lt;/div&gt;&lt;div&gt;[37,44,45,39,33,32]&lt;/div&gt;" style="shape=hexagon;perimeter=hexagonPerimeter2;whiteSpace=wrap;html=1;fixedSize=1;fillColor=#008a00;fontColor=#ffffff;strokeColor=#005700;" vertex="1" parent="1">
          <mxGeometry x="960" y="200" width="120" height="80" as="geometry" />
        </mxCell>
        <mxCell id="LcEoei4q89ycvATHcjAb-106" value="39&lt;div&gt;[38,45,46,40,34,33]&lt;/div&gt;" style="shape=hexagon;perimeter=hexagonPerimeter2;whiteSpace=wrap;html=1;fixedSize=1;fillColor=default;fontColor=#000000;strokeColor=light-dark(#C73500,#FFFFFF);" vertex="1" parent="1">
          <mxGeometry x="960" y="320" width="120" height="80" as="geometry" />
        </mxCell>
        <mxCell id="LcEoei4q89ycvATHcjAb-107" value="40&lt;div&gt;[39,46,47,41,35,34]&lt;/div&gt;" style="shape=hexagon;perimeter=hexagonPerimeter2;whiteSpace=wrap;html=1;fixedSize=1;" vertex="1" parent="1">
          <mxGeometry x="960" y="440" width="120" height="80" as="geometry" />
        </mxCell>
        <mxCell id="LcEoei4q89ycvATHcjAb-108" value="41&lt;div&gt;(5kg, 2m)&lt;/div&gt;&lt;div&gt;[40,47,48,42,36,35]&lt;/div&gt;" style="shape=hexagon;perimeter=hexagonPerimeter2;whiteSpace=wrap;html=1;fixedSize=1;fillColor=#fa6800;fontColor=#000000;strokeColor=#C73500;" vertex="1" parent="1">
          <mxGeometry x="960" y="560" width="120" height="80" as="geometry" />
        </mxCell>
        <mxCell id="LcEoei4q89ycvATHcjAb-109" value="42&lt;div&gt;[41,48,36]&lt;/div&gt;" style="shape=hexagon;perimeter=hexagonPerimeter2;whiteSpace=wrap;html=1;fixedSize=1;" vertex="1" parent="1">
          <mxGeometry x="960" y="680" width="120" height="80" as="geometry" />
        </mxCell>
        <mxCell id="LcEoei4q89ycvATHcjAb-131" value="43&lt;div&gt;(30kg, 1m)&lt;/div&gt;&lt;div&gt;[49,44,37]&lt;/div&gt;" style="shape=hexagon;perimeter=hexagonPerimeter2;whiteSpace=wrap;html=1;fixedSize=1;fillColor=#6a00ff;fontColor=#ffffff;strokeColor=#3700CC;" vertex="1" parent="1">
          <mxGeometry x="1120" width="120" height="80" as="geometry" />
        </mxCell>
        <mxCell id="LcEoei4q89ycvATHcjAb-132" value="44&lt;div&gt;[43,49,50,45,38,37]&lt;/div&gt;" style="shape=hexagon;perimeter=hexagonPerimeter2;whiteSpace=wrap;html=1;fixedSize=1;" vertex="1" parent="1">
          <mxGeometry x="1120" y="120" width="120" height="80" as="geometry" />
        </mxCell>
        <mxCell id="LcEoei4q89ycvATHcjAb-133" value="45&lt;div&gt;[44,50,51,46,39,38]&lt;/div&gt;" style="shape=hexagon;perimeter=hexagonPerimeter2;whiteSpace=wrap;html=1;fixedSize=1;" vertex="1" parent="1">
          <mxGeometry x="1120" y="240" width="120" height="80" as="geometry" />
        </mxCell>
        <mxCell id="LcEoei4q89ycvATHcjAb-134" value="47&lt;div&gt;[46,52,53,48,41,40]&lt;/div&gt;" style="shape=hexagon;perimeter=hexagonPerimeter2;whiteSpace=wrap;html=1;fixedSize=1;" vertex="1" parent="1">
          <mxGeometry x="1120" y="480" width="120" height="80" as="geometry" />
        </mxCell>
        <mxCell id="LcEoei4q89ycvATHcjAb-135" value="48&lt;div&gt;[47,53,54,42,41]&lt;/div&gt;" style="shape=hexagon;perimeter=hexagonPerimeter2;whiteSpace=wrap;html=1;fixedSize=1;" vertex="1" parent="1">
          <mxGeometry x="1120" y="600" width="120" height="80" as="geometry" />
        </mxCell>
        <mxCell id="LcEoei4q89ycvATHcjAb-136" value="49&lt;div&gt;[50,44,43]&lt;/div&gt;" style="shape=hexagon;perimeter=hexagonPerimeter2;whiteSpace=wrap;html=1;fixedSize=1;" vertex="1" parent="1">
          <mxGeometry x="1280" y="80" width="120" height="80" as="geometry" />
        </mxCell>
        <mxCell id="LcEoei4q89ycvATHcjAb-137" value="50&lt;div&gt;(10kg, 3m)&lt;/div&gt;&lt;div&gt;[49,51,45,44]&lt;/div&gt;" style="shape=hexagon;perimeter=hexagonPerimeter2;whiteSpace=wrap;html=1;fixedSize=1;fillColor=#008a00;fontColor=#ffffff;strokeColor=#005700;" vertex="1" parent="1">
          <mxGeometry x="1280" y="200" width="120" height="80" as="geometry" />
        </mxCell>
        <mxCell id="LcEoei4q89ycvATHcjAb-138" value="51&lt;div&gt;[50,52,46,45]&lt;/div&gt;" style="shape=hexagon;perimeter=hexagonPerimeter2;whiteSpace=wrap;html=1;fixedSize=1;fillColor=default;fontColor=#000000;strokeColor=light-dark(#C73500,#FFFFFF);" vertex="1" parent="1">
          <mxGeometry x="1280" y="320" width="120" height="80" as="geometry" />
        </mxCell>
        <mxCell id="LcEoei4q89ycvATHcjAb-139" value="52&lt;div&gt;[51,53,47,46]&lt;/div&gt;" style="shape=hexagon;perimeter=hexagonPerimeter2;whiteSpace=wrap;html=1;fixedSize=1;" vertex="1" parent="1">
          <mxGeometry x="1280" y="440" width="120" height="80" as="geometry" />
        </mxCell>
        <mxCell id="LcEoei4q89ycvATHcjAb-140" value="53&lt;div&gt;[52,54,48,47]&lt;/div&gt;" style="shape=hexagon;perimeter=hexagonPerimeter2;whiteSpace=wrap;html=1;fixedSize=1;" vertex="1" parent="1">
          <mxGeometry x="1280" y="560" width="120" height="80" as="geometry" />
        </mxCell>
        <mxCell id="LcEoei4q89ycvATHcjAb-141" value="54&lt;div&gt;[53,48]&lt;/div&gt;" style="shape=hexagon;perimeter=hexagonPerimeter2;whiteSpace=wrap;html=1;fixedSize=1;fillColor=#e51400;fontColor=#ffffff;strokeColor=#B20000;" vertex="1" parent="1">
          <mxGeometry x="1280" y="680" width="120" height="80" as="geometry" />
        </mxCell>
        <mxCell id="LcEoei4q89ycvATHcjAb-180" value="22&lt;div&gt;[21,27,28,23,16,15]&lt;/div&gt;" style="shape=hexagon;perimeter=hexagonPerimeter2;whiteSpace=wrap;html=1;fixedSize=1;" vertex="1" parent="1">
          <mxGeometry x="480" y="360" width="120" height="80" as="geometry" />
        </mxCell>
        <mxCell id="LcEoei4q89ycvATHcjAb-181" value="34&lt;div&gt;[33,39,40,35,28,27]&lt;/div&gt;" style="shape=hexagon;perimeter=hexagonPerimeter2;whiteSpace=wrap;html=1;fixedSize=1;" vertex="1" parent="1">
          <mxGeometry x="800" y="360" width="120" height="80" as="geometry" />
        </mxCell>
        <mxCell id="LcEoei4q89ycvATHcjAb-182" value="46&lt;div&gt;(20kg, 2m)&lt;/div&gt;&lt;div&gt;[45,51,52,47,40,39]&lt;/div&gt;" style="shape=hexagon;perimeter=hexagonPerimeter2;whiteSpace=wrap;html=1;fixedSize=1;fillColor=#1ba1e2;fontColor=#ffffff;strokeColor=#006EAF;" vertex="1" parent="1">
          <mxGeometry x="1120" y="360" width="120" height="80" as="geometry" />
        </mxCell>
      </root>
    </mxGraphModel>
  </diagram>
</mxfile>
